<svg version="1.1" viewBox="0.0 0.0 960.0 720.0" fill="none" stroke="none" stroke-linecap="square" stroke-miterlimit="10" xmlns:xlink="http://www.w3.org/1999/xlink" xmlns="http://www.w3.org/2000/svg"><clipPath id="p.0"><path d="m0 0l960.0 0l0 720.0l-960.0 0l0 -720.0z" clip-rule="nonzero"/></clipPath><g clip-path="url(#p.0)"><path fill="#000000" fill-opacity="0.0" d="m0 0l960.0 0l0 720.0l-960.0 0z" fill-rule="evenodd"/><path fill="#ff0000" d="m81.5958 360.0735l0 0c0 -196.84819 174.66534 -356.4252 390.12598 -356.4252q195.06302 0 390.126 0q0 178.21259 0 356.4252l0 0c0 196.8482 -174.66534 356.42517 -390.126 356.42517l0 0c-215.46063 0 -390.12598 -159.57697 -390.12598 -356.42517z" fill-rule="evenodd"/><path stroke="#000000" stroke-width="1.0" stroke-linejoin="round" stroke-linecap="butt" d="m81.5958 360.0735l0 0c0 -196.84819 174.66534 -356.4252 390.12598 -356.4252q195.06302 0 390.126 0q0 178.21259 0 356.4252l0 0c0 196.8482 -174.66534 356.42517 -390.126 356.42517l0 0c-215.46063 0 -390.12598 -159.57697 -390.12598 -356.42517z" fill-rule="evenodd"/></g></svg>